{"nbformat":4,"nbformat_minor":0,"metadata":{"colab":{"name":"“DeepFaceLab_Colab_V5.ipynb”的副本","provenance":[{"file_id":"https://github.com/dream80/DeepFaceLab_Colab/blob/master/DeepFaceLab_Colab_V5.ipynb","timestamp":1628937313395}],"collapsed_sections":[]},"kernelspec":{"name":"python3","display_name":"Python 3"},"accelerator":"GPU"},"cells":[{"cell_type":"markdown","metadata":{"id":"KWQMLYlFrTXz"},"source":["# 简介\n","\n","无需多说，一路运行即可！\n","\n","此脚本由**[托尼是塔克](https://www.tonyisstark.com)**创建，仅用于学习，请勿滥用。如有疑问，拉到最后！\n","\n","QQ群：659480116  \n","教程地址：https://www.deepfaker.xyz"]},{"cell_type":"code","metadata":{"id":"AmGMbWZef1XI","cellView":"form","colab":{"base_uri":"https://localhost:8080/"},"executionInfo":{"status":"ok","timestamp":1628964047336,"user_tz":-480,"elapsed":369,"user":{"displayName":"Fucku Adolf","photoUrl":"","userId":"13405619822784493599"}},"outputId":"3ce16d44-59d1-4d5a-cff0-f70011157e9a"},"source":["#@title 查看分配到的设备\n","# 查看设备，是K80还是T4,如果是K80...！\n","! /opt/bin/nvidia-smi"],"execution_count":null,"outputs":[{"output_type":"stream","text":["/bin/bash: /opt/bin/nvidia-smi: No such file or directory\n"],"name":"stdout"}]},{"cell_type":"markdown","metadata":{"id":"ldpC3PjRrYYh"},"source":["# 第一步 准备工作\n"," "]},{"cell_type":"code","metadata":{"id":"KtPP3K9inlLM","colab":{"base_uri":"https://localhost:8080/"},"executionInfo":{"status":"ok","timestamp":1628969402739,"user_tz":-480,"elapsed":34594,"user":{"displayName":"何智杰","photoUrl":"","userId":"08004278661735242866"}},"outputId":"414a3b48-93fc-4501-d9c6-ac69c1ad7a06"},"source":["#@title 挂载云盘\n","from google.colab import drive\n","drive.mount('/content/drive')"],"execution_count":1,"outputs":[{"output_type":"stream","text":["Mounted at /content/drive\n"],"name":"stdout"}]},{"cell_type":"code","metadata":{"id":"ze6K9tYTkqK_","colab":{"base_uri":"https://localhost:8080/"},"executionInfo":{"status":"ok","timestamp":1628969458878,"user_tz":-480,"elapsed":977,"user":{"displayName":"何智杰","photoUrl":"","userId":"08004278661735242866"}},"outputId":"374ef526-a024-413a-d40b-9df7d95a63ee"},"source":["#@title 初始化项目\n","\n","import os \n","root = \"/content/drive/MyDrive/Shareddrives/dl/\" #@param {type:\"string\"}\n","tensorflow = \"2\" #@param [1,2]\n","%cd $root\n","!mkdir DeepFaceLab\n","deepfacelab=os.path.join(root,\"DeepFaceLab\")\n","workspace=os.path.join(deepfacelab,\"workspace\")\n","deepfacelab_cloab=os.path.join(deepfacelab,\"DeepFaceLab_Colab\")\n","\n","if tensorflow==\"1\":\n","  %tensorflow_version 1.x\n","  !sudo apt-get install cuda-10-0\n","else:\n","  %tensorflow_version 2.x\n","\n"],"execution_count":4,"outputs":[{"output_type":"stream","text":["/content/drive/MyDrive/Shareddrives/dl\n"],"name":"stdout"}]},{"cell_type":"code","metadata":{"colab":{"base_uri":"https://localhost:8080/"},"id":"0Z3vxhjdbZf-","executionInfo":{"status":"ok","timestamp":1628969412463,"user_tz":-480,"elapsed":520,"user":{"displayName":"何智杰","photoUrl":"","userId":"08004278661735242866"}},"outputId":"ee18fd19-f748-4812-bea2-2de92e69660e"},"source":["#@title 再次训练初始化\n","import os \n","root = \"/content/drive/MyDrive/Shareddrives/dl/\" #@param {type:\"string\"}\n","tensorflow = \"2\" #@param [1,2]\n","%cd $root\n","deepfacelab=os.path.join(root,\"DeepFaceLab\")\n","workspace=os.path.join(deepfacelab,\"workspace\")\n","deepfacelab_cloab=os.path.join(deepfacelab,\"DeepFaceLab_Colab\")\n","%tensorflow_version 2.x"],"execution_count":2,"outputs":[{"output_type":"stream","text":["[Errno 2] No such file or directory: '/content/drive/MyDrive/Shareddrives/dl/'\n","/content\n"],"name":"stdout"}]},{"cell_type":"code","metadata":{"id":"fptlIHykh3HU","colab":{"base_uri":"https://localhost:8080/"},"executionInfo":{"status":"ok","timestamp":1628969481002,"user_tz":-480,"elapsed":13292,"user":{"displayName":"何智杰","photoUrl":"","userId":"08004278661735242866"}},"outputId":"3a5a75f0-ea16-4a0f-e1fa-53505074d968"},"source":["#@title 准备素材\n","\n","online = True #@param {type:\"boolean\"}\n","upload = \"data_src/aligned\" #@param [\"data_src/aligned\",\"data_dst/aligned\",\"model\",\"data_src\",\"data_dst\"]\n","\n","if online :\n","  %cd $deepfacelab\n","  !rm -rf workspace\n","  !git clone https://github.com/dream80/DFLWorkspace.git workspace\n","else:\n","  from google.colab import files\n","  import shutil\n","  upload_path = os.path.join(workspace,upload)\n","  %cd $upload_path\n","  #if os.path.isdir(upload_path):\n","  #shutil.rmtree(upload_path)\n","  uploaded = files.upload()\n","  '''for filename in uploaded.keys():\n","    print(basepath+\"/\"+filename)\n","    print(upload_path+\"/\"+filename)\n","    shutil.move(os.path.join(basepath, filename), os.path.join(upload_path, filename))\n","\n","  '''\n"],"execution_count":5,"outputs":[{"output_type":"stream","text":["/content/drive/MyDrive/Shareddrives/dl/DeepFaceLab\n","Cloning into 'workspace'...\n","remote: Enumerating objects: 42, done.\u001b[K\n","remote: Counting objects: 100% (7/7), done.\u001b[K\n","remote: Compressing objects: 100% (7/7), done.\u001b[K\n","remote: Total 42 (delta 1), reused 4 (delta 0), pack-reused 35\u001b[K\n","Unpacking objects: 100% (42/42), done.\n"],"name":"stdout"}]},{"cell_type":"markdown","metadata":{"id":"9eiY_suIhUD-"},"source":["# 第二部 安装软件"]},{"cell_type":"code","metadata":{"colab":{"base_uri":"https://localhost:8080/"},"id":"BAjqEG02b2GG","executionInfo":{"status":"ok","timestamp":1628969488127,"user_tz":-480,"elapsed":1280,"user":{"displayName":"何智杰","photoUrl":"","userId":"08004278661735242866"}},"outputId":"f50b43ae-9fa6-43dd-8c78-3c2b59143ed2"},"source":["#@title 再次训练安装依赖\n","%cd /content/drive/MyDrive/Shareddrives/dl/DeepFaceLab/DeepFaceLab_Colab/\n","!pip install -r requirements-colab.txt"],"execution_count":6,"outputs":[{"output_type":"stream","text":["[Errno 2] No such file or directory: '/content/drive/MyDrive/Shareddrives/dl/DeepFaceLab/DeepFaceLab_Colab/'\n","/content/drive/MyDrive/Shareddrives/dl/DeepFaceLab\n","\u001b[31mERROR: Could not open requirements file: [Errno 2] No such file or directory: 'requirements-colab.txt'\u001b[0m\n"],"name":"stdout"}]},{"cell_type":"code","metadata":{"id":"4CbWbLzHzqTQ","colab":{"base_uri":"https://localhost:8080/","height":1000},"executionInfo":{"status":"ok","timestamp":1628969591044,"user_tz":-480,"elapsed":83476,"user":{"displayName":"何智杰","photoUrl":"","userId":"08004278661735242866"}},"outputId":"7bbb3df2-2e38-495e-8429-88d664ca5fb3"},"source":["#@title 开始安装\n","\n","Version = \"v3.07.20\" #@param [\"v2.02.03\", \"v2.02.23b\", \"v2.02.28\",\"v2.03.07\",\"v2.03.15\",\"v2.06.01\",\"v2.06.19\",\"v2.08.02\",\"v3.01.04\",\"v3.07.20\",\"last\"]\n","%cd $deepfacelab\n","!rm -fr DeepFaceLab_Colab\n","\n","if Version==\"620\":\n","  print(\"620版加载中....\")\n","  # 获取DFL源代码v1.6.1稳定版\n","  !git clone -b v1.6.1 https://github.com/dream80/DeepFaceLab_Colab.git\n","  %cd $deepfacelab_cloab\n","  !pip install -r requirements-colab.txt  \n","elif Version==\"last\":\n","  print(\"最新版加载中....\")\n","  !git clone https://github.com/dream80/DeepFaceLab_Colab.git DeepFaceLab_Colab\n","  %cd $deepfacelab_cloab\n","  !pip install -r requirements-colab.txt\n","else:\n","  print(Version+\" 加载中....\")\n","  cmd=\"clone -b \"+Version+\" https://github.com/dream80/DeepFaceLab_Colab.git\"  \n","  !git $cmd\n","  %cd $deepfacelab_cloab\n","  !pip install -r requirements-colab.txt\n","\n","\n"],"execution_count":7,"outputs":[{"output_type":"stream","text":["/content/drive/MyDrive/Shareddrives/dl/DeepFaceLab\n","v3.07.20 加载中....\n","Cloning into 'DeepFaceLab_Colab'...\n","remote: Enumerating objects: 4151, done.\u001b[K\n","remote: Counting objects: 100% (135/135), done.\u001b[K\n","remote: Compressing objects: 100% (94/94), done.\u001b[K\n","remote: Total 4151 (delta 46), reused 90 (delta 40), pack-reused 4016\u001b[K\n","Receiving objects: 100% (4151/4151), 785.02 MiB | 21.19 MiB/s, done.\n","Resolving deltas: 100% (2601/2601), done.\n","Note: checking out '68e8d1ef928f39d1c3cfd14f82685e26a9ee9f6b'.\n","\n","You are in 'detached HEAD' state. You can look around, make experimental\n","changes and commit them, and you can discard any commits you make in this\n","state without impacting any branches by performing another checkout.\n","\n","If you want to create a new branch to retain commits you create, you may\n","do so (now or later) by using -b with the checkout command again. Example:\n","\n","  git checkout -b <new-branch-name>\n","\n","Checking out files: 100% (439/439), done.\n","/content/drive/MyDrive/Shareddrives/dl/DeepFaceLab/DeepFaceLab_Colab\n","Requirement already satisfied: tqdm in /usr/local/lib/python3.7/dist-packages (from -r requirements-colab.txt (line 1)) (4.62.0)\n","Collecting numpy==1.19.3\n","  Downloading numpy-1.19.3-cp37-cp37m-manylinux2010_x86_64.whl (14.9 MB)\n","\u001b[K     |████████████████████████████████| 14.9 MB 102 kB/s \n","\u001b[?25hCollecting h5py==2.10.0\n","  Downloading h5py-2.10.0-cp37-cp37m-manylinux1_x86_64.whl (2.9 MB)\n","\u001b[K     |████████████████████████████████| 2.9 MB 34.6 MB/s \n","\u001b[?25hCollecting opencv-python==4.1.0.25\n","  Downloading opencv_python-4.1.0.25-cp37-cp37m-manylinux1_x86_64.whl (26.6 MB)\n","\u001b[K     |████████████████████████████████| 26.6 MB 34 kB/s \n","\u001b[?25hCollecting ffmpeg-python==0.1.17\n","  Downloading ffmpeg_python-0.1.17-py3-none-any.whl (20 kB)\n","Requirement already satisfied: scipy==1.4.1 in /usr/local/lib/python3.7/dist-packages (from -r requirements-colab.txt (line 6)) (1.4.1)\n","Collecting colorama\n","  Downloading colorama-0.4.4-py2.py3-none-any.whl (16 kB)\n","Collecting tf2onnx==1.8.4\n","  Downloading tf2onnx-1.8.4-py3-none-any.whl (345 kB)\n","\u001b[K     |████████████████████████████████| 345 kB 66.9 MB/s \n","\u001b[?25hRequirement already satisfied: six in /usr/local/lib/python3.7/dist-packages (from h5py==2.10.0->-r requirements-colab.txt (line 3)) (1.15.0)\n","Requirement already satisfied: future in /usr/local/lib/python3.7/dist-packages (from ffmpeg-python==0.1.17->-r requirements-colab.txt (line 5)) (0.16.0)\n","Requirement already satisfied: requests in /usr/local/lib/python3.7/dist-packages (from tf2onnx==1.8.4->-r requirements-colab.txt (line 8)) (2.23.0)\n","Requirement already satisfied: flatbuffers in /usr/local/lib/python3.7/dist-packages (from tf2onnx==1.8.4->-r requirements-colab.txt (line 8)) (1.12)\n","Collecting onnx>=1.4.1\n","  Downloading onnx-1.10.1-cp37-cp37m-manylinux_2_12_x86_64.manylinux2010_x86_64.whl (12.3 MB)\n","\u001b[K     |████████████████████████████████| 12.3 MB 188 kB/s \n","\u001b[?25hRequirement already satisfied: typing-extensions>=3.6.2.1 in /usr/local/lib/python3.7/dist-packages (from onnx>=1.4.1->tf2onnx==1.8.4->-r requirements-colab.txt (line 8)) (3.7.4.3)\n","Requirement already satisfied: protobuf in /usr/local/lib/python3.7/dist-packages (from onnx>=1.4.1->tf2onnx==1.8.4->-r requirements-colab.txt (line 8)) (3.17.3)\n","Requirement already satisfied: idna<3,>=2.5 in /usr/local/lib/python3.7/dist-packages (from requests->tf2onnx==1.8.4->-r requirements-colab.txt (line 8)) (2.10)\n","Requirement already satisfied: urllib3!=1.25.0,!=1.25.1,<1.26,>=1.21.1 in /usr/local/lib/python3.7/dist-packages (from requests->tf2onnx==1.8.4->-r requirements-colab.txt (line 8)) (1.24.3)\n","Requirement already satisfied: certifi>=2017.4.17 in /usr/local/lib/python3.7/dist-packages (from requests->tf2onnx==1.8.4->-r requirements-colab.txt (line 8)) (2021.5.30)\n","Requirement already satisfied: chardet<4,>=3.0.2 in /usr/local/lib/python3.7/dist-packages (from requests->tf2onnx==1.8.4->-r requirements-colab.txt (line 8)) (3.0.4)\n","Installing collected packages: numpy, onnx, tf2onnx, opencv-python, h5py, ffmpeg-python, colorama\n","  Attempting uninstall: numpy\n","    Found existing installation: numpy 1.19.5\n","    Uninstalling numpy-1.19.5:\n","      Successfully uninstalled numpy-1.19.5\n","  Attempting uninstall: opencv-python\n","    Found existing installation: opencv-python 4.1.2.30\n","    Uninstalling opencv-python-4.1.2.30:\n","      Successfully uninstalled opencv-python-4.1.2.30\n","  Attempting uninstall: h5py\n","    Found existing installation: h5py 3.1.0\n","    Uninstalling h5py-3.1.0:\n","      Successfully uninstalled h5py-3.1.0\n","\u001b[31mERROR: pip's dependency resolver does not currently take into account all the packages that are installed. This behaviour is the source of the following dependency conflicts.\n","tensorflow 2.5.0 requires h5py~=3.1.0, but you have h5py 2.10.0 which is incompatible.\n","datascience 0.10.6 requires folium==0.2.1, but you have folium 0.8.3 which is incompatible.\n","albumentations 0.1.12 requires imgaug<0.2.7,>=0.2.5, but you have imgaug 0.2.9 which is incompatible.\u001b[0m\n","Successfully installed colorama-0.4.4 ffmpeg-python-0.1.17 h5py-2.10.0 numpy-1.19.3 onnx-1.10.1 opencv-python-4.1.0.25 tf2onnx-1.8.4\n"],"name":"stdout"},{"output_type":"display_data","data":{"application/vnd.colab-display-data+json":{"pip_warning":{"packages":["numpy"]}}},"metadata":{"tags":[]}}]},{"cell_type":"markdown","metadata":{"id":"9G9s5gJrty-x"},"source":["# 第三步. 提取脸部"]},{"cell_type":"code","metadata":{"id":"YnhZyEERAW_D","cellView":"form","colab":{"base_uri":"https://localhost:8080/"},"executionInfo":{"status":"ok","timestamp":1628970995664,"user_tz":-480,"elapsed":1302359,"user":{"displayName":"何智杰","photoUrl":"","userId":"08004278661735242866"}},"outputId":"4aa09b13-9a3c-4074-d785-4a73d7657c28"},"source":["#@title 开始提取SRC\n","\n","%cd $deepfacelab_cloab\n","print(\"===分解视频==================================\")\n","!python main.py videoed extract-video --input-file ../workspace/data_src.mp4 --output-dir ../workspace/data_src/\n","print(\"===提取人脸==================================\")\n","!python main.py extract --input-dir ../workspace/data_src --output-dir ../workspace/data_src/aligned --detector s3fd\n","print(\"===打包人脸==================================\")\n","!python main.py util --input-dir ../workspace/data_src/aligned  --pack-faceset\n"],"execution_count":9,"outputs":[{"output_type":"stream","text":["/content/drive/MyDrive/Shareddrives/dl/DeepFaceLab/DeepFaceLab_Colab\n","===分解视频==================================\n","[0] Enter FPS ( ?:help ) : \n","0\n","[png] Output image format ( png/jpg ?:help ) : \n","png\n","ffmpeg version 3.4.8-0ubuntu0.2 Copyright (c) 2000-2020 the FFmpeg developers\n","  built with gcc 7 (Ubuntu 7.5.0-3ubuntu1~18.04)\n","  configuration: --prefix=/usr --extra-version=0ubuntu0.2 --toolchain=hardened --libdir=/usr/lib/x86_64-linux-gnu --incdir=/usr/include/x86_64-linux-gnu --enable-gpl --disable-stripping --enable-avresample --enable-avisynth --enable-gnutls --enable-ladspa --enable-libass --enable-libbluray --enable-libbs2b --enable-libcaca --enable-libcdio --enable-libflite --enable-libfontconfig --enable-libfreetype --enable-libfribidi --enable-libgme --enable-libgsm --enable-libmp3lame --enable-libmysofa --enable-libopenjpeg --enable-libopenmpt --enable-libopus --enable-libpulse --enable-librubberband --enable-librsvg --enable-libshine --enable-libsnappy --enable-libsoxr --enable-libspeex --enable-libssh --enable-libtheora --enable-libtwolame --enable-libvorbis --enable-libvpx --enable-libwavpack --enable-libwebp --enable-libx265 --enable-libxml2 --enable-libxvid --enable-libzmq --enable-libzvbi --enable-omx --enable-openal --enable-opengl --enable-sdl2 --enable-libdc1394 --enable-libdrm --enable-libiec61883 --enable-chromaprint --enable-frei0r --enable-libopencv --enable-libx264 --enable-shared\n","  libavutil      55. 78.100 / 55. 78.100\n","  libavcodec     57.107.100 / 57.107.100\n","  libavformat    57. 83.100 / 57. 83.100\n","  libavdevice    57. 10.100 / 57. 10.100\n","  libavfilter     6.107.100 /  6.107.100\n","  libavresample   3.  7.  0 /  3.  7.  0\n","  libswscale      4.  8.100 /  4.  8.100\n","  libswresample   2.  9.100 /  2.  9.100\n","  libpostproc    54.  7.100 / 54.  7.100\n","Input #0, mov,mp4,m4a,3gp,3g2,mj2, from '/content/drive/MyDrive/Shareddrives/dl/DeepFaceLab/workspace/data_src.mp4':\n","  Metadata:\n","    major_brand     : mp42\n","    minor_version   : 1\n","    compatible_brands: isommp41mp42\n","    creation_time   : 2021-08-14T19:22:42.000000Z\n","  Duration: 00:01:35.80, start: -0.001333, bitrate: 5014 kb/s\n","    Stream #0:0(zho): Audio: aac (LC) (mp4a / 0x6134706D), 48000 Hz, stereo, fltp, 108 kb/s (default)\n","    Metadata:\n","      creation_time   : 2021-08-14T19:22:42.000000Z\n","      handler_name    : Core Media Audio\n","    Stream #0:1(und): Video: h264 (High) (avc1 / 0x31637661), yuv420p(tv, bt709, progressive), 1280x720 [SAR 1:1 DAR 16:9], 4894 kb/s, 25 fps, 25 tbr, 25k tbn, 50k tbc (default)\n","    Metadata:\n","      creation_time   : 2021-08-14T19:22:42.000000Z\n","      handler_name    : Core Media Video\n","Stream mapping:\n","  Stream #0:1 -> #0:0 (h264 (native) -> png (native))\n","Press [q] to stop, [?] for help\n","Output #0, image2, to '/content/drive/MyDrive/Shareddrives/dl/DeepFaceLab/workspace/data_src/%5d.png':\n","  Metadata:\n","    major_brand     : mp42\n","    minor_version   : 1\n","    compatible_brands: isommp41mp42\n","    encoder         : Lavf57.83.100\n","    Stream #0:0(und): Video: png, rgb24, 1280x720 [SAR 1:1 DAR 16:9], q=2-31, 200 kb/s, 25 fps, 25 tbn, 25 tbc (default)\n","    Metadata:\n","      creation_time   : 2021-08-14T19:22:42.000000Z\n","      handler_name    : Core Media Video\n","      encoder         : Lavc57.107.100 png\n","frame= 2395 fps= 16 q=-0.0 Lsize=N/A time=00:01:35.80 bitrate=N/A speed=0.639x    \n","video:1827299kB audio:0kB subtitle:0kB other streams:0kB global headers:0kB muxing overhead: unknown\n","Done.\n","===提取人脸==================================\n","\n","Choose one or several GPU idxs (separated by comma).\n","\n","[CPU] : CPU\n","  [0] : Tesla T4\n","\n","[0] Which GPU indexes to choose? : 0\n","0\n","\n","[wf] Face type ( f/wf/head ?:help ) : \n","wf\n","[0] Max number of faces from image ( ?:help ) : \n","0\n","[512] Image size ( 256-2048 ?:help ) : \n","512\n","[90] Jpeg quality ( 1-100 ?:help ) : \n","90\n","[n] Write debug images to aligned_debug? ( y/n ) : \n","n\n","Extracting faces...\n","\n","Running on Tesla T4\n","100% 2395/2395 [17:25<00:00,  2.29it/s]\n","-------------------------\n","Images found:        2395\n","Faces detected:      2395\n","-------------------------\n","Done.\n","===打包人脸==================================\n","Performing faceset packing...\n","\n","Loading samples: 100% 2395/2395 [00:13<00:00, 182.81it/s]\n","Processing: 100% 2395/2395 [00:00<00:00, 16536.25it/s]\n","Packing: 100% 2395/2395 [00:02<00:00, 1002.25it/s]\n","[y] Delete original files? ( y/n ) : \n","y\n","Deleting files: 100% 2395/2395 [00:08<00:00, 289.71it/s]\n","Done.\n"],"name":"stdout"}]},{"cell_type":"code","metadata":{"id":"VvdQB1XhuO8o","cellView":"form","colab":{"base_uri":"https://localhost:8080/"},"executionInfo":{"status":"ok","timestamp":1628971625441,"user_tz":-480,"elapsed":624373,"user":{"displayName":"何智杰","photoUrl":"","userId":"08004278661735242866"}},"outputId":"134fd577-4a60-4aa0-8e94-d777742d7c78"},"source":["#@title 开始提取DST\n","%cd $deepfacelab_cloab\n","print(\"===分解视频==================================\")\n","!python main.py videoed extract-video --input-file ../workspace/data_dst.mp4 --output-dir ../workspace/data_dst/\n","print(\"===提取人脸==================================\")\n","!python main.py extract --input-dir ../workspace/data_dst --output-dir ../workspace/data_dst/aligned --detector s3fd --output-debug\n","print(\"===打包人脸==================================\")\n","!python main.py util --input-dir ../workspace/data_dst/aligned  --pack-faceset\n"],"execution_count":10,"outputs":[{"output_type":"stream","text":["/content/drive/MyDrive/Shareddrives/dl/DeepFaceLab/DeepFaceLab_Colab\n","===分解视频==================================\n","[0] Enter FPS ( ?:help ) : \n","0\n","[png] Output image format ( png/jpg ?:help ) : \n","png\n","ffmpeg version 3.4.8-0ubuntu0.2 Copyright (c) 2000-2020 the FFmpeg developers\n","  built with gcc 7 (Ubuntu 7.5.0-3ubuntu1~18.04)\n","  configuration: --prefix=/usr --extra-version=0ubuntu0.2 --toolchain=hardened --libdir=/usr/lib/x86_64-linux-gnu --incdir=/usr/include/x86_64-linux-gnu --enable-gpl --disable-stripping --enable-avresample --enable-avisynth --enable-gnutls --enable-ladspa --enable-libass --enable-libbluray --enable-libbs2b --enable-libcaca --enable-libcdio --enable-libflite --enable-libfontconfig --enable-libfreetype --enable-libfribidi --enable-libgme --enable-libgsm --enable-libmp3lame --enable-libmysofa --enable-libopenjpeg --enable-libopenmpt --enable-libopus --enable-libpulse --enable-librubberband --enable-librsvg --enable-libshine --enable-libsnappy --enable-libsoxr --enable-libspeex --enable-libssh --enable-libtheora --enable-libtwolame --enable-libvorbis --enable-libvpx --enable-libwavpack --enable-libwebp --enable-libx265 --enable-libxml2 --enable-libxvid --enable-libzmq --enable-libzvbi --enable-omx --enable-openal --enable-opengl --enable-sdl2 --enable-libdc1394 --enable-libdrm --enable-libiec61883 --enable-chromaprint --enable-frei0r --enable-libopencv --enable-libx264 --enable-shared\n","  libavutil      55. 78.100 / 55. 78.100\n","  libavcodec     57.107.100 / 57.107.100\n","  libavformat    57. 83.100 / 57. 83.100\n","  libavdevice    57. 10.100 / 57. 10.100\n","  libavfilter     6.107.100 /  6.107.100\n","  libavresample   3.  7.  0 /  3.  7.  0\n","  libswscale      4.  8.100 /  4.  8.100\n","  libswresample   2.  9.100 /  2.  9.100\n","  libpostproc    54.  7.100 / 54.  7.100\n","Input #0, mov,mp4,m4a,3gp,3g2,mj2, from '/content/drive/MyDrive/Shareddrives/dl/DeepFaceLab/workspace/data_dst.mp4':\n","  Metadata:\n","    major_brand     : mp42\n","    minor_version   : 1\n","    compatible_brands: isommp41mp42\n","    creation_time   : 2021-08-12T15:55:53.000000Z\n","  Duration: 00:00:15.00, start: -0.019458, bitrate: 12571 kb/s\n","    Stream #0:0(zho): Audio: aac (LC) (mp4a / 0x6134706D), 48000 Hz, stereo, fltp, 125 kb/s (default)\n","    Metadata:\n","      creation_time   : 2021-08-12T15:55:53.000000Z\n","      handler_name    : Core Media Audio\n","    Stream #0:1(und): Video: h264 (High) (avc1 / 0x31637661), yuv420p(tv, bt709, progressive), 1280x720 [SAR 1:1 DAR 16:9], 11994 kb/s, 59.94 fps, 59.94 tbr, 60k tbn, 120k tbc (default)\n","    Metadata:\n","      creation_time   : 2021-08-12T15:55:53.000000Z\n","      handler_name    : Core Media Video\n","Stream mapping:\n","  Stream #0:1 -> #0:0 (h264 (native) -> png (native))\n","Press [q] to stop, [?] for help\n","Output #0, image2, to '/content/drive/MyDrive/Shareddrives/dl/DeepFaceLab/workspace/data_dst/%5d.png':\n","  Metadata:\n","    major_brand     : mp42\n","    minor_version   : 1\n","    compatible_brands: isommp41mp42\n","    encoder         : Lavf57.83.100\n","    Stream #0:0(und): Video: png, rgb24, 1280x720 [SAR 1:1 DAR 16:9], q=2-31, 200 kb/s, 59.94 fps, 59.94 tbn, 59.94 tbc (default)\n","    Metadata:\n","      creation_time   : 2021-08-12T15:55:53.000000Z\n","      handler_name    : Core Media Video\n","      encoder         : Lavc57.107.100 png\n","frame=  900 fps= 17 q=-0.0 Lsize=N/A time=00:00:15.01 bitrate=N/A dup=1 drop=0 speed=0.277x    \n","video:611180kB audio:0kB subtitle:0kB other streams:0kB global headers:0kB muxing overhead: unknown\n","Done.\n","===提取人脸==================================\n","\n","Choose one or several GPU idxs (separated by comma).\n","\n","[CPU] : CPU\n","  [0] : Tesla T4\n","\n","[0] Which GPU indexes to choose? : \n","0\n","\n","[wf] Face type ( f/wf/head ?:help ) : \n","wf\n","[0] Max number of faces from image ( ?:help ) : \n","0\n","[512] Image size ( 256-2048 ?:help ) : \n","512\n","[90] Jpeg quality ( 1-100 ?:help ) : \n","90\n","Extracting faces...\n","Running on Tesla T4\n","100% 900/900 [07:42<00:00,  1.94it/s]\n","-------------------------\n","Images found:        900\n","Faces detected:      900\n","-------------------------\n","Done.\n","===打包人脸==================================\n","Performing faceset packing...\n","\n","Loading samples: 100% 900/900 [00:04<00:00, 209.52it/s]\n","Processing: 100% 900/900 [00:00<00:00, 40167.63it/s]\n","Packing: 100% 900/900 [00:00<00:00, 1062.42it/s]\n","[y] Delete original files? ( y/n ) : \n","y\n","Deleting files: 100% 900/900 [00:02<00:00, 310.27it/s]\n","Done.\n"],"name":"stdout"}]},{"cell_type":"markdown","metadata":{"id":"QxO1kNO_uRTF"},"source":["# 第四步. 训练模型\n"]},{"cell_type":"code","metadata":{"id":"MKQbOrIiyFJL","colab":{"base_uri":"https://localhost:8080/"},"outputId":"8ac7ef36-033f-41e2-f887-20e8db1f02d4"},"source":["#@title 训练模型\n","Model = \"Quick96\" #@param [\"SAEHD\",\"AMP\",\"Quick96\",\"XSeg\"]\n","%cd $deepfacelab_cloab\n","cmd = \"main.py train --training-data-src-dir ../workspace/data_src/aligned --training-data-dst-dir ../workspace/data_dst/aligned --model-dir ../workspace/model --model \"+Model+\" --no-preview\"\n","!python $cmd"],"execution_count":null,"outputs":[{"output_type":"stream","text":["/content/drive/MyDrive/Shareddrives/dl/DeepFaceLab/DeepFaceLab_Colab\n","Running trainer.\n","\n","[new] No saved models found. Enter a name of a new model : shining\n","shining\n","\n","Model first run.\n","\n","Choose one or several GPU idxs (separated by comma).\n","\n","[CPU] : CPU\n","  [0] : Tesla T4\n","\n","[0] Which GPU indexes to choose? : shining\n","shining\n","[0] Which GPU indexes to choose? : 0\n","0\n","\n","Initializing models: 100% 5/5 [00:00<00:00,  6.61it/s]\n","Loaded 2395 packed faces from /content/drive/MyDrive/Shareddrives/dl/DeepFaceLab/workspace/data_src/aligned\n","Loaded 900 packed faces from /content/drive/MyDrive/Shareddrives/dl/DeepFaceLab/workspace/data_dst/aligned\n","============ Model Summary =============\n","==                                    ==\n","==        Model name: shining_Quick96 ==\n","==                                    ==\n","== Current iteration: 0               ==\n","==                                    ==\n","==---------- Model Options -----------==\n","==                                    ==\n","==        batch_size: 4               ==\n","==                                    ==\n","==------------ Running On ------------==\n","==                                    ==\n","==      Device index: 0               ==\n","==              Name: Tesla T4        ==\n","==              VRAM: 13.51GB         ==\n","==                                    ==\n","========================================\n","Starting. Press \"Enter\" to stop training and save model.\n","\n","Trying to do the first iteration. If an error occurs, reduce the model parameters.\n","\n","[20:07:44][#000002][0165ms][4.2790][4.2992]\n","[20:09:35][#000910][0108ms][0.6651][0.7317]"],"name":"stdout"}]},{"cell_type":"markdown","metadata":{"id":"m2Ba96cVuS0K"},"source":["# 第五步. 转换输出\n","\n"]},{"cell_type":"code","metadata":{"id":"G_oEgeU7I9jt","colab":{"base_uri":"https://localhost:8080/"},"executionInfo":{"status":"ok","timestamp":1628968498422,"user_tz":-480,"elapsed":682089,"user":{"displayName":"Fucku Adolf","photoUrl":"","userId":"13405619822784493599"}},"outputId":"f75898b3-3f74-49b2-9cd4-8ae30bc32c6a"},"source":["#@title 应用模型\n","\n","Model = \"SAEHD\" #@param [\"SAEHD\", \"Quick96\"]\n","%cd $deepfacelab_cloab\n","cmd = \" main.py merge --output-mask-dir ../workspace/data_dst/merged_mask --input-dir ../workspace/data_dst --output-dir ../workspace/data_dst/merged --aligned-dir ../workspace/data_dst/aligned --model-dir ../workspace/model --model \" + Model\n","!python $cmd"],"execution_count":null,"outputs":[{"output_type":"stream","text":["/content/drive/MyDrive/Shareddrives/dl/DeepFaceLab/DeepFaceLab_Colab\n","Running merger.\n","\n","Choose one of saved models, or enter a name to create a new model.\n","[r] : rename\n","[d] : delete\n","\n","[0] : shining - latest\n"," : 0\n","0\n","Loading shining_SAEHD model...\n","Initializing models: 100% 4/4 [00:01<00:00,  3.10it/s]\n","============= Model Summary ==============\n","==                                      ==\n","==            Model name: shining_SAEHD ==\n","==                                      ==\n","==     Current iteration: 24392         ==\n","==                                      ==\n","==----------- Model Options ------------==\n","==                                      ==\n","==            resolution: 128           ==\n","==             face_type: f             ==\n","==     models_opt_on_gpu: True          ==\n","==                 archi: liae-ud       ==\n","==               ae_dims: 256           ==\n","==                e_dims: 64            ==\n","==                d_dims: 64            ==\n","==           d_mask_dims: 22            ==\n","==       masked_training: True          ==\n","==       eyes_mouth_prio: False         ==\n","==           uniform_yaw: False         ==\n","==             adabelief: True          ==\n","==            lr_dropout: n             ==\n","==           random_warp: True          ==\n","==       true_face_power: 0.0           ==\n","==      face_style_power: 0.0           ==\n","==        bg_style_power: 0.0           ==\n","==               ct_mode: none          ==\n","==              clipgrad: False         ==\n","==              pretrain: False         ==\n","==       autobackup_hour: 0             ==\n","== write_preview_history: False         ==\n","==           target_iter: 0             ==\n","==       random_src_flip: False         ==\n","==       random_dst_flip: True          ==\n","==            batch_size: 8             ==\n","==             gan_power: 0.0           ==\n","==        gan_patch_size: 16            ==\n","==              gan_dims: 16            ==\n","==                                      ==\n","==------------- Running On -------------==\n","==                                      ==\n","==          Using device: CPU           ==\n","==                                      ==\n","==========================================\n","Choose mode: \n","(0) original\n","(1) overlay\n","(2) hist-match\n","(3) seamless\n","(4) seamless-hist-match\n","(5) raw-rgb\n","(6) raw-predict\n","\n","[1] : 2\n","2\n","[y] Masked hist match? ( y/n ) : \n","y\n","[255] Hist match threshold ( 0..255 ) : \n","255\n","Choose mask mode: \n","(0) full\n","(1) dst\n","(2) learned-prd\n","(3) learned-dst\n","(4) learned-prd*learned-dst\n","(5) learned-prd+learned-dst\n","(6) XSeg-prd\n","(7) XSeg-dst\n","(8) XSeg-prd*XSeg-dst\n","(9) learned-prd*learned-dst*XSeg-prd*XSeg-dst\n","\n","[1] : \n","1\n","[0] Choose erode mask modifier ( -400..400 ) : \n","0\n","[0] Choose blur mask modifier ( 0..400 ) : \n","0\n","[0] Choose motion blur power ( 0..100 ) : \n","0\n","[0] Choose output face scale modifier ( -50..50 ) : \n","0\n","Color transfer to predicted face ( rct/lct/mkl/mkl-m/idt/idt-m/sot-m/mix-m ) : \n","\n","Choose sharpen mode: \n","(0) None\n","(1) box\n","(2) gaussian\n","\n","[0] ( ?:help ) : \n","0\n","[0] Choose super resolution power ( 0..100 ?:help ) : \n","0\n","[0] Choose image degrade by denoise power ( 0..500 ) : \n","0\n","[0] Choose image degrade by bicubic rescale power ( 0..100 ) : \n","0\n","[0] Degrade color power of final image ( 0..100 ) : \n","0\n","\n","[8] Number of workers? ( 1-2 ?:help ) : \n","8\n","Using packed faceset.\n","Collecting alignments: 100% 900/900 [00:04<00:00, 192.26it/s]\n","Computing motion vectors: 100% 900/900 [00:01<00:00, 824.16it/s]\n","Running on CPU1.\n","Running on CPU3.\n","Running on CPU0.\n","Running on CPU6.\n","Running on CPU4.\n","Running on CPU5.\n","Running on CPU2.\n","Running on CPU7.\n","Merging: 100% 900/900 [08:53<00:00,  1.69it/s]\n","Done.\n"],"name":"stdout"}]},{"cell_type":"code","metadata":{"id":"fbxfQ8UbJrqk","cellView":"form","colab":{"base_uri":"https://localhost:8080/"},"executionInfo":{"status":"ok","timestamp":1628968626439,"user_tz":-480,"elapsed":125883,"user":{"displayName":"Fucku Adolf","photoUrl":"","userId":"13405619822784493599"}},"outputId":"d81dd9f2-11c8-4cbd-aabe-77162fe1af1b"},"source":["#@title 合成视频\n","%cd $deepfacelab_cloab\n","\n","format = \"mp4\" #@param [\"mp4\",\"avi\",\"mov\"]\n","lossless = False #@param {type:\"boolean\"}\n","\n","merged = \"main.py videoed video-from-sequence --input-dir ../workspace/data_dst/merged --output-file ../workspace/result.mp4 --reference-file ../workspace/data_dst.mp4 --include-audio\"\n","merged_mask = \"main.py videoed video-from-sequence --input-dir ../workspace/data_dst/merged_mask --output-file ../workspace/result_mask.mp4 --reference-file ../workspace/data_dst.mp4 --include-audio --lossless\"\n","\n","\n","if lossless :\n","  merged=merged+\" --include-audio --lossless\"\n","\n","!python $merged\n","!python $merged_mask\n","\n"],"execution_count":null,"outputs":[{"output_type":"stream","text":["/content/drive/MyDrive/Shareddrives/dl/DeepFaceLab/DeepFaceLab_Colab\n","[16] Bitrate of output file in MB/s : \n","16\n","ffmpeg version 3.4.8-0ubuntu0.2 Copyright (c) 2000-2020 the FFmpeg developers\n","  built with gcc 7 (Ubuntu 7.5.0-3ubuntu1~18.04)\n","  configuration: --prefix=/usr --extra-version=0ubuntu0.2 --toolchain=hardened --libdir=/usr/lib/x86_64-linux-gnu --incdir=/usr/include/x86_64-linux-gnu --enable-gpl --disable-stripping --enable-avresample --enable-avisynth --enable-gnutls --enable-ladspa --enable-libass --enable-libbluray --enable-libbs2b --enable-libcaca --enable-libcdio --enable-libflite --enable-libfontconfig --enable-libfreetype --enable-libfribidi --enable-libgme --enable-libgsm --enable-libmp3lame --enable-libmysofa --enable-libopenjpeg --enable-libopenmpt --enable-libopus --enable-libpulse --enable-librubberband --enable-librsvg --enable-libshine --enable-libsnappy --enable-libsoxr --enable-libspeex --enable-libssh --enable-libtheora --enable-libtwolame --enable-libvorbis --enable-libvpx --enable-libwavpack --enable-libwebp --enable-libx265 --enable-libxml2 --enable-libxvid --enable-libzmq --enable-libzvbi --enable-omx --enable-openal --enable-opengl --enable-sdl2 --enable-libdc1394 --enable-libdrm --enable-libiec61883 --enable-chromaprint --enable-frei0r --enable-libopencv --enable-libx264 --enable-shared\n","  libavutil      55. 78.100 / 55. 78.100\n","  libavcodec     57.107.100 / 57.107.100\n","  libavformat    57. 83.100 / 57. 83.100\n","  libavdevice    57. 10.100 / 57. 10.100\n","  libavfilter     6.107.100 /  6.107.100\n","  libavresample   3.  7.  0 /  3.  7.  0\n","  libswscale      4.  8.100 /  4.  8.100\n","  libswresample   2.  9.100 /  2.  9.100\n","  libpostproc    54.  7.100 / 54.  7.100\n","Input #0, image2pipe, from 'pipe:':\n","  Duration: N/A, bitrate: N/A\n","    Stream #0:0: Video: png, rgb24(pc), 1280x720, 59.94 fps, 59.94 tbr, 59.94 tbn, 59.94 tbc\n","Input #1, mov,mp4,m4a,3gp,3g2,mj2, from '/content/drive/MyDrive/Shareddrives/dl/DeepFaceLab/workspace/data_dst.mp4':\n","  Metadata:\n","    major_brand     : mp42\n","    minor_version   : 1\n","    compatible_brands: isommp41mp42\n","    creation_time   : 2021-08-12T15:55:53.000000Z\n","  Duration: 00:00:15.00, start: -0.019458, bitrate: 12571 kb/s\n","    Stream #1:0(zho): Audio: aac (LC) (mp4a / 0x6134706D), 48000 Hz, stereo, fltp, 125 kb/s (default)\n","    Metadata:\n","      creation_time   : 2021-08-12T15:55:53.000000Z\n","      handler_name    : Core Media Audio\n","    Stream #1:1(und): Video: h264 (High) (avc1 / 0x31637661), yuv420p(tv, bt709, progressive), 1280x720 [SAR 1:1 DAR 16:9], 11994 kb/s, 59.94 fps, 59.94 tbr, 60k tbn, 120k tbc (default)\n","    Metadata:\n","      creation_time   : 2021-08-12T15:55:53.000000Z\n","      handler_name    : Core Media Video\n","Stream mapping:\n","  Stream #0:0 -> #0:0 (png (native) -> h264 (libx264))\n","  Stream #1:0 -> #0:1 (aac (native) -> aac (native))\n","\u001b[1;36m[libx264 @ 0x5615a47ec000] \u001b[0musing cpu capabilities: MMX2 SSE2Fast SSSE3 SSE4.2 AVX FMA3 BMI2 AVX2\n","\u001b[1;36m[libx264 @ 0x5615a47ec000] \u001b[0mprofile High, level 4.1\n","\u001b[1;36m[libx264 @ 0x5615a47ec000] \u001b[0m264 - core 152 r2854 e9a5903 - H.264/MPEG-4 AVC codec - Copyleft 2003-2017 - http://www.videolan.org/x264.html - options: cabac=1 ref=3 deblock=1:0:0 analyse=0x3:0x113 me=hex subme=7 psy=1 psy_rd=1.00:0.00 mixed_ref=1 me_range=16 chroma_me=1 trellis=1 8x8dct=1 cqm=0 deadzone=21,11 fast_pskip=1 chroma_qp_offset=-2 threads=3 lookahead_threads=1 sliced_threads=0 nr=0 decimate=1 interlaced=0 bluray_compat=0 constrained_intra=0 bframes=3 b_pyramid=2 b_adapt=1 b_bias=0 direct=1 weightb=1 open_gop=0 weightp=2 keyint=250 keyint_min=25 scenecut=40 intra_refresh=0 rc_lookahead=40 rc=abr mbtree=1 bitrate=16000 ratetol=1.0 qcomp=0.60 qpmin=0 qpmax=69 qpstep=4 ip_ratio=1.40 aq=1:1.00\n","Output #0, mp4, to '/content/drive/MyDrive/Shareddrives/dl/DeepFaceLab/workspace/result.mp4':\n","  Metadata:\n","    encoder         : Lavf57.83.100\n","    Stream #0:0: Video: h264 (libx264) (avc1 / 0x31637661), yuv420p(progressive), 1280x720, q=-1--1, 16000 kb/s, 59.94 fps, 60k tbn, 59.94 tbc\n","    Metadata:\n","      encoder         : Lavc57.107.100 libx264\n","    Side data:\n","      cpb: bitrate max/min/avg: 0/0/16000000 buffer size: 0 vbv_delay: -1\n","    Stream #0:1(zho): Audio: aac (LC) (mp4a / 0x6134706D), 48000 Hz, stereo, fltp, 192 kb/s (default)\n","    Metadata:\n","      creation_time   : 2021-08-12T15:55:53.000000Z\n","      handler_name    : Core Media Audio\n","      encoder         : Lavc57.107.100 aac\n","\u001b[0;35m[image2pipe @ 0x5615a4822000] \u001b[0m\u001b[0;33mThread message queue blocking; consider raising the thread_queue_size option (current value: 8)\n","frame=  900 fps= 10 q=-1.0 Lsize=   29415kB time=00:00:15.04 bitrate=16022.0kbits/s speed=0.171x    \n","video:29037kB audio:354kB subtitle:0kB other streams:0kB global headers:0kB muxing overhead: 0.084151%\n","\u001b[1;36m[libx264 @ 0x5615a47ec000] \u001b[0mframe I:4     Avg QP: 5.71  size:152465\n","\u001b[1;36m[libx264 @ 0x5615a47ec000] \u001b[0mframe P:227   Avg QP: 7.01  size: 78413\n","\u001b[1;36m[libx264 @ 0x5615a47ec000] \u001b[0mframe B:669   Avg QP: 9.04  size: 16926\n","\u001b[1;36m[libx264 @ 0x5615a47ec000] \u001b[0mconsecutive B-frames:  0.9%  0.0%  0.0% 99.1%\n","\u001b[1;36m[libx264 @ 0x5615a47ec000] \u001b[0mmb I  I16..4: 23.8% 34.6% 41.7%\n","\u001b[1;36m[libx264 @ 0x5615a47ec000] \u001b[0mmb P  I16..4: 10.1% 14.9% 11.6%  P16..4: 29.3% 15.9% 14.1%  0.0%  0.0%    skip: 4.1%\n","\u001b[1;36m[libx264 @ 0x5615a47ec000] \u001b[0mmb B  I16..4:  1.6%  2.5%  0.7%  B16..8: 41.2% 10.0%  3.5%  direct: 8.2%  skip:32.4%  L0:48.7% L1:46.1% BI: 5.1%\n","\u001b[1;36m[libx264 @ 0x5615a47ec000] \u001b[0mfinal ratefactor: 6.09\n","\u001b[1;36m[libx264 @ 0x5615a47ec000] \u001b[0m8x8 transform intra:43.9% inter:25.6%\n","\u001b[1;36m[libx264 @ 0x5615a47ec000] \u001b[0mcoded y,uvDC,uvAC intra: 82.8% 76.7% 71.2% inter: 30.2% 22.3% 15.3%\n","\u001b[1;36m[libx264 @ 0x5615a47ec000] \u001b[0mi16 v,h,dc,p: 47% 19% 26%  8%\n","\u001b[1;36m[libx264 @ 0x5615a47ec000] \u001b[0mi8 v,h,dc,ddl,ddr,vr,hd,vl,hu: 38% 15% 33%  2%  3%  3%  2%  2%  2%\n","\u001b[1;36m[libx264 @ 0x5615a47ec000] \u001b[0mi4 v,h,dc,ddl,ddr,vr,hd,vl,hu: 53% 17% 15%  2%  3%  3%  2%  3%  2%\n","\u001b[1;36m[libx264 @ 0x5615a47ec000] \u001b[0mi8c dc,h,v,p: 46% 12% 36%  6%\n","\u001b[1;36m[libx264 @ 0x5615a47ec000] \u001b[0mWeighted P-Frames: Y:0.0% UV:0.0%\n","\u001b[1;36m[libx264 @ 0x5615a47ec000] \u001b[0mref P L0: 72.4%  6.3% 14.5%  6.8%\n","\u001b[1;36m[libx264 @ 0x5615a47ec000] \u001b[0mref B L0: 88.2%  9.0%  2.8%\n","\u001b[1;36m[libx264 @ 0x5615a47ec000] \u001b[0mref B L1: 96.0%  4.0%\n","\u001b[1;36m[libx264 @ 0x5615a47ec000] \u001b[0mkb/s:15841.90\n","\u001b[1;36m[aac @ 0x5615a47ecf00] \u001b[0mQavg: 434.301\n","Done.\n","ffmpeg version 3.4.8-0ubuntu0.2 Copyright (c) 2000-2020 the FFmpeg developers\n","  built with gcc 7 (Ubuntu 7.5.0-3ubuntu1~18.04)\n","  configuration: --prefix=/usr --extra-version=0ubuntu0.2 --toolchain=hardened --libdir=/usr/lib/x86_64-linux-gnu --incdir=/usr/include/x86_64-linux-gnu --enable-gpl --disable-stripping --enable-avresample --enable-avisynth --enable-gnutls --enable-ladspa --enable-libass --enable-libbluray --enable-libbs2b --enable-libcaca --enable-libcdio --enable-libflite --enable-libfontconfig --enable-libfreetype --enable-libfribidi --enable-libgme --enable-libgsm --enable-libmp3lame --enable-libmysofa --enable-libopenjpeg --enable-libopenmpt --enable-libopus --enable-libpulse --enable-librubberband --enable-librsvg --enable-libshine --enable-libsnappy --enable-libsoxr --enable-libspeex --enable-libssh --enable-libtheora --enable-libtwolame --enable-libvorbis --enable-libvpx --enable-libwavpack --enable-libwebp --enable-libx265 --enable-libxml2 --enable-libxvid --enable-libzmq --enable-libzvbi --enable-omx --enable-openal --enable-opengl --enable-sdl2 --enable-libdc1394 --enable-libdrm --enable-libiec61883 --enable-chromaprint --enable-frei0r --enable-libopencv --enable-libx264 --enable-shared\n","  libavutil      55. 78.100 / 55. 78.100\n","  libavcodec     57.107.100 / 57.107.100\n","  libavformat    57. 83.100 / 57. 83.100\n","  libavdevice    57. 10.100 / 57. 10.100\n","  libavfilter     6.107.100 /  6.107.100\n","  libavresample   3.  7.  0 /  3.  7.  0\n","  libswscale      4.  8.100 /  4.  8.100\n","  libswresample   2.  9.100 /  2.  9.100\n","  libpostproc    54.  7.100 / 54.  7.100\n","Input #0, image2pipe, from 'pipe:':\n","  Duration: N/A, bitrate: N/A\n","    Stream #0:0: Video: png, gray(pc), 1280x720, 59.94 fps, 59.94 tbr, 59.94 tbn, 59.94 tbc\n","Input #1, mov,mp4,m4a,3gp,3g2,mj2, from '/content/drive/My Drive/Shareddrives/dl/DeepFaceLab/workspace/data_dst.mp4':\n","  Metadata:\n","    major_brand     : mp42\n","    minor_version   : 1\n","    compatible_brands: isommp41mp42\n","    creation_time   : 2021-08-12T15:55:53.000000Z\n","  Duration: 00:00:15.00, start: -0.019458, bitrate: 12571 kb/s\n","    Stream #1:0(zho): Audio: aac (LC) (mp4a / 0x6134706D), 48000 Hz, stereo, fltp, 125 kb/s (default)\n","    Metadata:\n","      creation_time   : 2021-08-12T15:55:53.000000Z\n","      handler_name    : Core Media Audio\n","    Stream #1:1(und): Video: h264 (High) (avc1 / 0x31637661), yuv420p(tv, bt709, progressive), 1280x720 [SAR 1:1 DAR 16:9], 11994 kb/s, 59.94 fps, 59.94 tbr, 60k tbn, 120k tbc (default)\n","    Metadata:\n","      creation_time   : 2021-08-12T15:55:53.000000Z\n","      handler_name    : Core Media Video\n","Stream mapping:\n","  Stream #0:0 -> #0:0 (png (native) -> h264 (libx264))\n","  Stream #1:0 -> #0:1 (aac (native) -> aac (native))\n","\u001b[0;35m[image2pipe @ 0x561fc1b7c000] \u001b[0m\u001b[0;33mThread message queue blocking; consider raising the thread_queue_size option (current value: 8)\n","\u001b[0m\u001b[1;36m[libx264 @ 0x561fc1b46000] \u001b[0musing cpu capabilities: MMX2 SSE2Fast SSSE3 SSE4.2 AVX FMA3 BMI2 AVX2\n","\u001b[1;36m[libx264 @ 0x561fc1b46000] \u001b[0mprofile High 4:4:4 Predictive, level 3.2, 4:2:0 8-bit\n","\u001b[1;36m[libx264 @ 0x561fc1b46000] \u001b[0m264 - core 152 r2854 e9a5903 - H.264/MPEG-4 AVC codec - Copyleft 2003-2017 - http://www.videolan.org/x264.html - options: cabac=1 ref=3 deblock=1:0:0 analyse=0x1:0x111 me=hex subme=7 psy=0 mixed_ref=1 me_range=16 chroma_me=1 trellis=0 8x8dct=1 cqm=0 deadzone=21,11 fast_pskip=0 chroma_qp_offset=0 threads=3 lookahead_threads=1 sliced_threads=0 nr=0 decimate=1 interlaced=0 bluray_compat=0 constrained_intra=0 bframes=0 weightp=2 keyint=250 keyint_min=25 scenecut=40 intra_refresh=0 rc=cqp mbtree=0 qp=0\n","Output #0, mp4, to '/content/drive/My Drive/Shareddrives/dl/DeepFaceLab/workspace/result_mask.mp4':\n","  Metadata:\n","    encoder         : Lavf57.83.100\n","    Stream #0:0: Video: h264 (libx264) (avc1 / 0x31637661), yuv420p(progressive), 1280x720, q=-1--1, 59.94 fps, 60k tbn, 59.94 tbc\n","    Metadata:\n","      encoder         : Lavc57.107.100 libx264\n","    Side data:\n","      cpb: bitrate max/min/avg: 0/0/0 buffer size: 0 vbv_delay: -1\n","    Stream #0:1(zho): Audio: aac (LC) (mp4a / 0x6134706D), 48000 Hz, stereo, fltp, 192 kb/s (default)\n","    Metadata:\n","      creation_time   : 2021-08-12T15:55:53.000000Z\n","      handler_name    : Core Media Audio\n","      encoder         : Lavc57.107.100 aac\n","frame=  900 fps= 49 q=-1.0 Lsize=    4581kB time=00:00:15.04 bitrate=2495.2kbits/s speed=0.816x    \n","video:4210kB audio:354kB subtitle:0kB other streams:0kB global headers:0kB muxing overhead: 0.387533%\n","\u001b[1;36m[libx264 @ 0x561fc1b46000] \u001b[0mframe I:4     Avg QP: 0.00  size:  6097\n","\u001b[1;36m[libx264 @ 0x561fc1b46000] \u001b[0mframe P:896   Avg QP: 0.00  size:  4783\n","\u001b[1;36m[libx264 @ 0x561fc1b46000] \u001b[0mmb I  I16..4: 98.3%  0.0%  1.7%\n","\u001b[1;36m[libx264 @ 0x561fc1b46000] \u001b[0mmb P  I16..4:  3.8%  0.0%  0.1%  P16..4:  2.3%  0.6%  0.2%  0.0%  0.0%    skip:93.0%\n","\u001b[1;36m[libx264 @ 0x561fc1b46000] \u001b[0m8x8 transform intra:0.0% inter:29.1%\n","\u001b[1;36m[libx264 @ 0x561fc1b46000] \u001b[0mcoded y,uvDC,uvAC intra: 86.9% 0.0% 0.0% inter: 2.1% 0.0% 0.0%\n","\u001b[1;36m[libx264 @ 0x561fc1b46000] \u001b[0mi16 v,h,dc,p: 34%  1% 65%  0%\n","\u001b[1;36m[libx264 @ 0x561fc1b46000] \u001b[0mi4 v,h,dc,ddl,ddr,vr,hd,vl,hu: 22% 31% 32%  2%  3%  2%  3%  1%  3%\n","\u001b[1;36m[libx264 @ 0x561fc1b46000] \u001b[0mi8c dc,h,v,p: 100%  0%  0%  0%\n","\u001b[1;36m[libx264 @ 0x561fc1b46000] \u001b[0mWeighted P-Frames: Y:0.0% UV:0.0%\n","\u001b[1;36m[libx264 @ 0x561fc1b46000] \u001b[0mref P L0: 71.1%  0.1% 17.8% 10.9%\n","\u001b[1;36m[libx264 @ 0x561fc1b46000] \u001b[0mkb/s:2296.52\n","\u001b[1;36m[aac @ 0x561fc1b46f00] \u001b[0mQavg: 434.301\n","Done.\n"],"name":"stdout"}]},{"cell_type":"markdown","metadata":{"id":"cVfp8xbY5ykL"},"source":["#第六步. 继续训练\n","\n"]},{"cell_type":"code","metadata":{"id":"veL_8afb6WcP","cellView":"form"},"source":["#@title 一键运行\n","#挂载谷歌云盘\n","#点击链接授权，复制授权码，填入框框，然后回车。\n","\n","Model = \"SAEHD\" #@param [\"SAEHD\" , \"Quick96\"]\n","\n","#挂载\n","from google.colab import drive\n","drive.mount('/content/drive', force_remount=True)\n","\n","\n","import os \n","root = \"/content/drive/Shareddrives/dl/\" #@param {type:\"string\"}\n","tensorflow = \"2.x\" #@param [\"1.x\",\"2.x\"]\n","%cd $root\n","!mkdir DeepFaceLab\n","deepfacelab=os.path.join(root,\"DeepFaceLab\")\n","workspace=os.path.join(deepfacelab,\"workspace\")\n","deepfacelab_cloab=os.path.join(deepfacelab,\"DeepFaceLab_Colab\")\n","\n","if tensorflow==\"1.x\":\n","  %tensorflow_version 1.x\n","else:\n","  %tensorflow_version 2.x\n","\n","%cd $deepfacelab_cloab\n","# 安装Python依赖\n","!pip install -r requirements-colab.txt\n","# 开始训练SAE ，如果是其他模型，修改后面的参数即可，比如H128。\n","cmd = \"main.py train --training-data-src-dir ../workspace/data_src/aligned --training-data-dst-dir ../workspace/data_dst/aligned --model-dir ../workspace/model --model \"+Model+\" --no-preview\"\n","!python $cmd "],"execution_count":null,"outputs":[]},{"cell_type":"markdown","metadata":{"id":"siaPGJ1QVacj"},"source":["# 工具\n"]},{"cell_type":"markdown","metadata":{"id":"WGLTllAHYAPJ"},"source":["\n","打包素材。可以加快上传，下载，加载的速度。"]},{"cell_type":"code","metadata":{"id":"5MrM8JfIFiy7","cellView":"form"},"source":["#@title 开始排序\n","target = \"src\" #@param [\"src\",\"dst\"]\n","\n","if target==\"src\":\n","  #Src排序，可以通过谷歌云盘查看结果，删除不良图片\n","  cmd = \"main.py sort --input-dir ../workspace/data_src/aligned\"\n","  \n","else:\n","  cmd = \"main.py sort --input-dir ../workspace/data_dst/aligned \"\n","\n","!python $cmd"],"execution_count":null,"outputs":[]},{"cell_type":"code","metadata":{"id":"fphcCxuh9Qfw","cellView":"form"},"source":["#@title 素材打包\n","\n","target = \"dst\" #@param [\"src\",\"dst\"]\n","%cd $deepfacelab_cloab\n","if target==\"src\":\n","  !python main.py util --input-dir ../workspace/data_src/aligned  --pack-faceset\n","else:\n","  !python main.py util --input-dir ../workspace/data_dst/aligned  --pack-faceset\n"," \n","  "],"execution_count":null,"outputs":[]},{"cell_type":"code","metadata":{"id":"bC2CyDDx6siX","cellView":"form"},"source":["#@title 素材解包\n","\n","target = \"src\" #@param [\"src\",\"dst\"]\n","%cd $deepfacelab_cloab\n","if target==\"src\":\n","  !python main.py util --input-dir ../workspace/data_src/aligned --unpack-faceset\n","else:\n","  !python main.py util --input-dir ../workspace/data_dst/aligned --unpack-faceset\n"," \n","  "],"execution_count":null,"outputs":[]},{"cell_type":"code","metadata":{"id":"NYDWkORS6xum","cellView":"form"},"source":["#@title 素材增强\n","\n","target = \"src\" #@param [\"src\"]\n","%cd $deepfacelab_cloab\n","if target==\"src\":\n","  !python main.py facesettool enhance --input-dir ../workspace/data_src/aligned\n","else:\n","  !python main.py facesettool enhance --input-dir ../workspace/data_dst/aligned\n"," \n","  "],"execution_count":null,"outputs":[]},{"cell_type":"markdown","metadata":{"id":"5H85SsIW1PI3"},"source":["# 其他\n","\n","  QQ群：659480116  \n","    \n"," 谷歌云地址：https://drive.google.com/drive/my-drive\n","\n"," 作者邮箱 ：wpgdream@gmail.com\n"," \n"," 使用教程：https://www.wxp123.me\n"," \n"," \n","不求别的，只求在github给个小星星^_^\n","\n","https://github.com/dream80/DeepFaceLab_Colab\n","\n","右上角star 谢谢!!!  \n","  \n"]}]}